<svg id="Layer_1" data-name="Layer 1" xmlns="http://www.w3.org/2000/svg" viewBox="0 0 128 128"><defs><style>.cls-1{fill:#2d3e50;}.cls-2{fill:#2e79bd;}</style></defs><title>b</title><path class="cls-1" d="M55.83921,19.23753a8.9794,8.9794,0,0,0,17.62839,0l1.37076-7.06543A9.45867,9.45867,0,0,0,65.46753,1.43883H63.83933A9.45864,9.45864,0,0,0,54.4685,12.17209Z" id="id_101" style="fill: rgb(255, 255, 255);"></path><path class="cls-1" d="M40.50546,72.12251a4.27254,4.27254,0,0,0,4.89881,2.19859,3.83544,3.83544,0,0,0,.56071-.18444,4.08526,4.08526,0,0,0,.80415-.45v5.29719H81.201c.10325-12.07.20655-24.0145.31724-27.85826.00738-.24348.03688-1.42389.08114-2.7888,0-.09591.00738-.20655.00738-.30985.06637-2.05837.12541-4.38236.12541-4.434l10.29931-.07376,4.50039-.02954h.53856a4.81764,4.81764,0,0,0,4.30861-2.7371L110.70444,21.504a4.43247,4.43247,0,0,0-7.84251-4.12412L94.0972,32.86572S75.35778,30.38682,73.84536,30.195a2.4847,2.4847,0,0,0-.4648-.01477h-.01472c-.059-.00738-.1033-.01477-.15495-.02211a2.21859,2.21859,0,0,0-.86318.059l-.22871-.07376-4.50782,4.50777-2.42725,2.41253-.63447.64924-.16233.1549-.16967-.18444v-.05165l-.03688.02954-.02954-.02954v.05165l-.17706.18444-.78942-.80415-2.43464-2.41253-4.50777-4.50777-.22871.07376a2.22908,2.22908,0,0,0-.86318-.059C53.505,30.372,46.533,31.80333,43.99515,32.3345a3.64612,3.64612,0,0,0-1.95511,1.055,6.70526,6.70526,0,0,0-.95171,1.32064l-6.153,11.39858-2.50844,4.64057-.28036.51645a4.5559,4.5559,0,0,0-.04426,4.19792Zm6.26367-24.11037V65.003L42.1876,54.09876Z" id="id_102" style="fill: rgb(255, 255, 255);"></path><path class="cls-2" d="M118.67813,81.9599H9.32187a1.379,1.379,0,0,0-1.379,1.379V99.73779a1.37906,1.37906,0,0,0,1.379,1.379h2.85306V122.571a3.99015,3.99015,0,0,0,3.99015,3.99015h95.66983a3.99015,3.99015,0,0,0,3.99015-3.99015V101.11683h2.85306a1.37906,1.37906,0,0,0,1.379-1.379V83.3389A1.379,1.379,0,0,0,118.67813,81.9599Zm-8.21784,39.23644H17.5398V101.11683h92.92048Z" id="id_103" style="fill: rgb(255, 255, 255);"></path></svg>